# xmcd
#
# Track frame offsets:
#	150
#	26512
#	47537
#	69817
#	94225
#	111575
#	136472
#	162750
#	183200
#	217370
#
# Disc length: 3141 seconds
#
# Revision: 0
# Processed by: cddbd v1.5.1PL0 Copyright (c) Steve Scherf et al.
# Submitted via: dBpowerAMP V4.0
#
DISCID=8b0c430a
DTITLE=Various Artist - Traumatismo Y Terror Vol. 3
DYEAR=1900
DGENRE=Gabber
TTITLE0=Too Fast For Mellow - Work That Mutha Fucka
TTITLE1=Speedloader - Suck My Dick
TTITLE2=E-Legal - No Alternative
TTITLE3=Gizmo and Dark Raver - Whoomps!
TTITLE4=Disciples Of Annihilation - Wanna Be A Gangsta
TTITLE5=Strychnine - Utopia Project
TTITLE6=Paranoia X - Party Program
TTITLE7=Ravers Nature - Hands Up Raver
TTITLE8=X-Cusiver - Armageddon (Part 1+2)
TTITLE9=Dreamteam - Thunderdome VI Megamix
EXTD=hello my name is kim zutterman, this is the second cd of Traumatismo Y terror Vol. 3, i noticed you have databased the first cd but not the second, so here is the second.
EXTT0=
EXTT1=
EXTT2=
EXTT3=
EXTT4=
EXTT5=
EXTT6=
EXTT7=
EXTT8=
EXTT9=
PLAYORDER=
